<svg width="14" height="14" viewBox="0 0 14 14" fill="none" xmlns="http://www.w3.org/2000/svg">
<path d="M6.97676 12.8334H1.74418C1.42324 12.8334 1.16279 12.572 1.16279 12.25V1.75002C1.16279 1.42801 1.42327 1.1667 1.74418 1.1667H6.97676C7.29827 1.1667 7.55815 0.905955 7.55815 0.583376C7.55815 0.260796 7.29827 0 6.97676 0H1.74418C0.782551 0 0 0.785187 0 1.75002V12.25C0 13.2148 0.782551 14 1.74418 14H6.97676C7.29827 14 7.55815 13.7393 7.55815 13.4167C7.55815 13.0941 7.29827 12.8334 6.97676 12.8334Z" fill="#EB5757"/>
<path d="M13.827 6.58469L10.2921 3.08469C10.0641 2.85835 9.69555 2.86128 9.46997 3.09053C9.24438 3.31978 9.24671 3.68902 9.47579 3.91536L12.0019 6.41668H5.23275C4.91124 6.41668 4.65137 6.67742 4.65137 7C4.65137 7.32258 4.91124 7.58335 5.23275 7.58335H12.0019L9.47579 10.0847C9.24673 10.311 9.24498 10.6803 9.46997 10.9095C9.58391 11.025 9.73392 11.0833 9.88393 11.0833C10.0316 11.0833 10.1793 11.0273 10.2921 10.9153L13.827 7.41531C13.9374 7.30565 14.0002 7.1563 14.0002 6.99998C14.0002 6.84371 13.938 6.69495 13.827 6.58469Z" fill="#EB5757"/>
</svg>
