<svg width="30" height="32" viewBox="0 0 30 32" fill="none" xmlns="http://www.w3.org/2000/svg">
<path d="M29.8289 8.65981L21.718 0.188625C21.6026 0.068125 21.4433 0 21.2769 0H9.18825C7.83537 0 6.73471 1.10588 6.73471 2.46513V11.0769H1.83565C0.823464 11.0769 0 11.9044 0 12.9215V22.1555C0 23.1726 0.823464 24 1.83565 24H6.73471V29.5392C6.73471 30.8961 7.83537 32 9.18825 32H27.5465C28.8993 32 30 30.8967 30 29.5406V9.08656C30 8.92744 29.9386 8.7745 29.8289 8.65981ZM21.4286 1.66131L28.0869 8.61537H21.4286V1.66131ZM1.83565 22.7693C1.49863 22.7693 1.22453 22.4939 1.22453 22.1555V12.9215C1.22453 12.5831 1.49869 12.3077 1.83565 12.3077H18.3684C18.7054 12.3077 18.9796 12.5831 18.9796 12.9215V22.1555C18.9796 22.4939 18.7054 22.7693 18.3684 22.7693H1.83565ZM28.7755 29.5406C28.7755 30.2181 28.2241 30.7693 27.5464 30.7693H9.18825C8.51054 30.7693 7.95918 30.2175 7.95918 29.5392V24H18.3683C19.3806 24 20.2041 23.1726 20.2041 22.1555V12.9215C20.2041 11.9044 19.3806 11.0769 18.3683 11.0769H7.95918V2.46513C7.95918 1.78444 8.51054 1.23075 9.18825 1.23075H20.2041V9.23075C20.2041 9.57063 20.4782 9.84612 20.8163 9.84612H28.7755V29.5406Z" fill="#3D4F9C"/>
<path d="M7.21601 16.4656C7.10123 16.1279 6.93396 15.8425 6.71384 15.6093C6.4939 15.3761 6.22957 15.2139 5.92103 15.1225C5.69146 15.0551 5.35792 15.0216 4.92016 15.0216H2.97949V20.3076H4.97756C5.36986 20.3076 5.68319 20.2704 5.91748 20.1957C6.23082 20.0948 6.47954 19.9542 6.66366 19.7739C6.90766 19.5359 7.09532 19.2247 7.22696 18.84C7.33453 18.5251 7.38825 18.1502 7.38825 17.715C7.38819 17.2199 7.3308 16.8034 7.21601 16.4656ZM6.18281 18.6364C6.11118 18.8732 6.0184 19.0431 5.90486 19.1465C5.79126 19.2499 5.6483 19.3233 5.47612 19.3665C5.34467 19.4002 5.13052 19.4169 4.83404 19.4169H4.04123V15.9157H4.51829C4.95132 15.9157 5.24183 15.9325 5.39013 15.9662C5.58867 16.0095 5.75246 16.0925 5.88161 16.2149C6.01063 16.3375 6.11118 16.5083 6.18281 16.7271C6.25457 16.9457 6.29057 17.2594 6.29057 17.6682C6.29063 18.0769 6.25463 18.3996 6.18281 18.6364Z" fill="#3D4F9C"/>
<path d="M17.3699 18.3643C17.2813 18.7513 17.1354 19.0351 16.9321 19.2152C16.7289 19.3955 16.4861 19.4857 16.2039 19.4857C15.8212 19.4857 15.5104 19.3438 15.2713 19.0603C15.0321 18.7766 14.9125 18.3006 14.9125 17.6323C14.9125 17.0026 15.0339 16.5471 15.2766 16.2659C15.5194 15.9845 15.8356 15.8438 16.2254 15.8438C16.5077 15.8438 16.7474 15.9232 16.9447 16.0818C17.142 16.2406 17.2718 16.4569 17.334 16.7309L18.3851 16.4784C18.2655 16.0553 18.0862 15.7309 17.8471 15.5049C17.4453 15.1228 16.9227 14.9316 16.2794 14.9316C15.5427 14.9316 14.9484 15.175 14.4964 15.6618C14.0444 16.1486 13.8184 16.8318 13.8184 17.7116C13.8184 18.5433 14.0432 19.199 14.4929 19.6786C14.9424 20.1581 15.5164 20.398 16.2148 20.398C16.7791 20.398 17.2449 20.258 17.6121 19.9778C17.9791 19.6978 18.2416 19.2694 18.3994 18.6925L17.3699 18.3643Z" fill="#3D4F9C"/>
<path d="M12.4778 15.6565C12.0125 15.1732 11.3926 14.9316 10.6176 14.9316C10.1895 14.9316 9.81174 15.0013 9.48405 15.1407C9.23775 15.2441 9.0111 15.4027 8.80429 15.6167C8.59735 15.8305 8.43418 16.0722 8.31449 16.3415C8.15425 16.7068 8.07422 17.1587 8.07422 17.6971C8.07422 18.5385 8.30503 19.199 8.76648 19.6785C9.22811 20.1581 9.85005 20.3979 10.632 20.3979C11.4045 20.3979 12.0215 20.157 12.4832 19.675C12.9446 19.193 13.1754 18.5253 13.1754 17.6719C13.1754 16.8113 12.9429 16.1395 12.4778 15.6565ZM11.6705 19.026C11.3992 19.3325 11.0517 19.4857 10.6283 19.4857C10.2051 19.4857 9.85596 19.3313 9.58093 19.0225C9.3059 18.7135 9.16829 18.2598 9.16829 17.6613C9.16829 17.0531 9.30223 16.5981 9.57005 16.2965C9.83792 15.9948 10.1907 15.8438 10.6283 15.8438C11.0661 15.8438 11.417 15.9929 11.6812 16.2911C11.9455 16.5891 12.0776 17.0411 12.0776 17.6468C12.0776 18.2598 11.942 18.7195 11.6705 19.026Z" fill="#3D4F9C"/>
</svg>
