<svg width="31" height="32" viewBox="0 0 31 32" fill="none" xmlns="http://www.w3.org/2000/svg">
<path d="M30.5974 8.65981L22.4866 0.188625C22.3711 0.068125 22.2118 0 22.0454 0H9.9568C8.60393 0 7.50326 1.10588 7.50326 2.46513V11.0769H2.6042C1.59202 11.0769 0.768555 11.9044 0.768555 12.9215V22.1555C0.768555 23.1726 1.59202 24 2.6042 24H7.50326V29.5392C7.50326 30.8961 8.60393 32 9.9568 32H28.315C29.6679 32 30.7686 30.8967 30.7686 29.5406V9.08656C30.7686 8.92744 30.7072 8.7745 30.5974 8.65981ZM22.1971 1.66131L28.8554 8.61537H22.1971V1.66131ZM2.6042 22.7693C2.26718 22.7693 1.99309 22.4939 1.99309 22.1555V12.9215C1.99309 12.5831 2.26724 12.3077 2.6042 12.3077H19.137C19.474 12.3077 19.7481 12.5831 19.7481 12.9215V22.1555C19.7481 22.4939 19.474 22.7693 19.137 22.7693H2.6042ZM29.544 29.5406C29.544 30.2181 28.9927 30.7693 28.315 30.7693H9.9568C9.27909 30.7693 8.72773 30.2175 8.72773 29.5392V24H19.137C20.1492 24 20.9727 23.1726 20.9727 22.1555V12.9215C20.9727 11.9044 20.1492 11.0769 19.137 11.0769H8.72773V2.46513C8.72773 1.78444 9.27909 1.23075 9.9568 1.23075H20.9726V9.23075C20.9726 9.57063 21.2468 9.84612 21.5848 9.84612H29.544V29.5406Z" fill="#3D4F9C"/>
<path d="M8.08895 15.6184C7.88568 15.3527 7.63335 15.1802 7.33202 15.1009C7.1359 15.048 6.71499 15.0216 6.06924 15.0216H4.36523V20.3077H5.4271V18.3137H6.11949C6.60021 18.3137 6.96733 18.2884 7.22084 18.2379C7.40738 18.197 7.59094 18.1135 7.77151 17.9873C7.95209 17.8611 8.10095 17.6874 8.21816 17.4663C8.33537 17.2452 8.39395 16.9723 8.39395 16.6478C8.39388 16.2271 8.29222 15.884 8.08895 15.6184ZM7.17955 17.0733C7.09946 17.1911 6.98884 17.2776 6.84769 17.3329C6.70654 17.3882 6.42679 17.4159 6.00824 17.4159H5.4271V15.9159H5.94009C6.32276 15.9159 6.57745 15.9279 6.70418 15.9519C6.87635 15.9832 7.01869 16.0613 7.13105 16.1863C7.24347 16.3113 7.29968 16.47 7.29968 16.6622C7.29975 16.8185 7.25964 16.9555 7.17955 17.0733Z" fill="#3D4F9C"/>
<path d="M13.4984 16.4657C13.3836 16.128 13.2162 15.8425 12.9962 15.6094C12.7762 15.3762 12.5119 15.2139 12.2034 15.1225C11.9738 15.0552 11.6401 15.0216 11.2025 15.0216H9.26172V20.3077H11.2599C11.6521 20.3077 11.9654 20.2704 12.1998 20.1959C12.5131 20.0949 12.7618 19.9543 12.9459 19.774C13.1899 19.536 13.3776 19.2247 13.5092 18.8401C13.6168 18.5252 13.6706 18.1502 13.6706 17.7151C13.6706 17.2199 13.6132 16.8035 13.4984 16.4657ZM12.4652 18.6364C12.3935 18.8732 12.3008 19.0433 12.1872 19.1466C12.0736 19.25 11.9307 19.3233 11.7585 19.3665C11.627 19.4002 11.4129 19.417 11.1164 19.417H10.3236V15.9159H10.8007C11.2335 15.9159 11.5242 15.9327 11.6724 15.9664C11.8709 16.0096 12.0347 16.0925 12.1639 16.2152C12.293 16.3378 12.3935 16.5084 12.4652 16.7272C12.537 16.9459 12.5729 17.2596 12.5729 17.6683C12.5729 18.0769 12.537 18.3996 12.4652 18.6364Z" fill="#3D4F9C"/>
<path d="M18.1834 15.9159V15.0216H14.5781V20.3077H15.64V18.0613H17.8355V17.167H15.64V15.9159H18.1834Z" fill="#3D4F9C"/>
</svg>
