<svg width="30" height="32" viewBox="0 0 30 32" fill="none" xmlns="http://www.w3.org/2000/svg">
<path d="M27.2569 10.4256C27.2248 10.3999 27.1864 10.3805 27.1477 10.3616C27.1091 10.3488 27.0707 10.3359 27.0257 10.3294C26.9039 10.3037 26.7752 10.3165 26.6597 10.3616C26.5764 10.3934 26.5056 10.4448 26.4477 10.5022C26.3322 10.6176 26.2617 10.7838 26.2617 10.9566C26.2617 11.1232 26.3322 11.2894 26.4477 11.4048C26.5056 11.4688 26.5764 11.5134 26.6597 11.5456C26.7368 11.5776 26.8202 11.5965 26.9039 11.5965C26.942 11.5965 26.9873 11.5902 27.0257 11.5836C27.0707 11.5711 27.1091 11.5585 27.1477 11.5456C27.1864 11.5262 27.2248 11.5071 27.2569 11.4879C27.2953 11.4622 27.3274 11.4365 27.3598 11.4048C27.475 11.2894 27.5458 11.1232 27.5458 10.9566C27.5458 10.7838 27.475 10.6239 27.3598 10.5022C27.3274 10.4702 27.2953 10.4448 27.2569 10.4256Z" fill="#3D4F9C"/>
<path d="M24.7019 10.7072C24.6825 10.6687 24.6635 10.6364 24.6443 10.5984C24.6186 10.5661 24.593 10.5344 24.5607 10.5022C24.381 10.3231 24.0985 10.2656 23.8609 10.3616C23.7838 10.3933 23.7133 10.4447 23.6555 10.5022C23.5337 10.6238 23.4629 10.7838 23.4629 10.9566C23.4629 11.04 23.4821 11.1231 23.5142 11.2C23.5466 11.2765 23.5913 11.3471 23.6555 11.4048C23.7133 11.4688 23.7838 11.5133 23.8609 11.5456C23.938 11.5776 24.0214 11.5964 24.1114 11.5964C24.2781 11.5964 24.4452 11.5262 24.5607 11.4048C24.6249 11.3471 24.6701 11.2765 24.7019 11.2C24.734 11.1231 24.7535 11.04 24.7535 10.9566C24.7535 10.9118 24.7469 10.8735 24.7406 10.8286C24.7277 10.7904 24.7148 10.7455 24.7019 10.7072V10.7072Z" fill="#3D4F9C"/>
<path d="M28.2825 7.29474H24.0003V0.640115C24.0003 0.286561 23.7128 0 23.3581 0H6.64189C6.2872 0 5.99973 0.286561 5.99973 0.640115V7.29474H1.71746C0.770265 7.29474 0 8.06255 0 9.00645V22.8295C0 23.7737 0.770265 24.5415 1.71746 24.5415H5.99973V31.3599C5.99973 31.7134 6.2872 32 6.64189 32H23.3581C23.7128 32 24.0003 31.7134 24.0003 31.3599V24.5415H28.2825C29.2297 24.5415 30 23.7737 30 22.8295V9.00645C30 8.06255 29.2297 7.29474 28.2825 7.29474V7.29474ZM7.28377 1.27996H22.7162V7.29474H7.28377V1.27996ZM7.28377 30.7198V18.4736H22.7162V30.7198H7.28377ZM28.716 22.8295C28.716 23.0677 28.5215 23.2615 28.2825 23.2615H24.0003V18.4736H26.0148C26.3692 18.4736 26.6567 18.1871 26.6567 17.8338C26.6567 17.4802 26.3692 17.1937 26.0148 17.1937H3.98519C3.63078 17.1937 3.3433 17.4802 3.3433 17.8338C3.3433 18.1871 3.63078 18.4736 3.98519 18.4736H5.99973V23.2615H1.71746C1.47854 23.2615 1.28405 23.0677 1.28405 22.8295V9.00645C1.28405 8.76829 1.47854 8.5747 1.71746 8.5747H28.2825C28.5215 8.5747 28.716 8.76829 28.716 9.00645V22.8295Z" fill="#3D4F9C"/>
<path d="M9.36482 21.9993H17.096C17.4507 21.9993 17.7381 21.7128 17.7381 21.3592C17.7381 21.0059 17.4507 20.7194 17.096 20.7194H9.36482C9.01013 20.7194 8.72266 21.0059 8.72266 21.3592C8.72266 21.7128 9.01013 21.9993 9.36482 21.9993Z" fill="#3D4F9C"/>
<path d="M20.6338 23.9569H9.36482C9.01013 23.9569 8.72266 24.2435 8.72266 24.5967C8.72266 24.9503 9.01013 25.2369 9.36482 25.2369H20.6338C20.9885 25.2369 21.2759 24.9503 21.2759 24.5967C21.2759 24.2435 20.9885 23.9569 20.6338 23.9569Z" fill="#3D4F9C"/>
<path d="M20.6338 27.1943H9.36482C9.01013 27.1943 8.72266 27.4809 8.72266 27.8342C8.72266 28.1877 9.01013 28.4743 9.36482 28.4743H20.6338C20.9885 28.4743 21.2759 28.1877 21.2759 27.8342C21.2759 27.4809 20.9885 27.1943 20.6338 27.1943Z" fill="#3D4F9C"/>
</svg>
