<svg width="22" height="20" viewBox="0 0 22 20" fill="none" xmlns="http://www.w3.org/2000/svg">
<path fill-rule="evenodd" clip-rule="evenodd" d="M7.01084 13.5716H7.01184L7.01433 13.5714H18.5725C18.8571 13.5714 19.1072 13.3811 19.1854 13.1052L21.7354 4.10525C21.7904 3.91122 21.7519 3.70262 21.6315 3.54158C21.511 3.38053 21.3226 3.28577 21.1225 3.28577H5.54061L5.08489 1.21776C5.01998 0.923618 4.76133 0.714355 4.4625 0.714355H0.6375C0.285381 0.714355 0 1.00213 0 1.35721C0 1.71229 0.285381 2.00006 0.6375 2.00006H3.95117L6.25282 12.4448C5.57531 12.7418 5.1 13.423 5.1 14.2143C5.1 15.2777 5.95797 16.1429 7.0125 16.1429H8.28321C7.23064 16.1452 6.375 17.0095 6.375 18.0714C6.375 19.1348 7.23297 20 8.2875 20C9.34203 20 10.2 19.1348 10.2 18.0714C10.2 17.0095 9.34436 16.1452 8.29179 16.1429H17.2932C16.2407 16.1452 15.385 17.0095 15.385 18.0714C15.385 19.1348 16.243 20 17.2975 20C18.352 20 19.21 19.1348 19.21 18.0714C19.21 17.0095 18.3544 16.1452 17.3018 16.1429H18.5725C18.9246 16.1429 19.21 15.8551 19.21 15.5C19.21 15.1449 18.9246 14.8572 18.5725 14.8572H7.0125C6.66105 14.8572 6.375 14.5687 6.375 14.2143C6.375 13.8604 6.66005 13.5725 7.01084 13.5716ZM20.2773 4.57148L18.0916 12.2857H7.52383L5.82383 4.57148H20.2773ZM8.2875 17.4286C8.63896 17.4286 8.925 17.717 8.925 18.0714C8.925 18.4258 8.63896 18.7143 8.2875 18.7143C7.93605 18.7143 7.65 18.4258 7.65 18.0714C7.65 17.717 7.93605 17.4286 8.2875 17.4286ZM17.935 18.0714C17.935 17.717 17.649 17.4286 17.2975 17.4286C16.9461 17.4286 16.66 17.717 16.66 18.0714C16.66 18.4258 16.9461 18.7143 17.2975 18.7143C17.649 18.7143 17.935 18.4258 17.935 18.0714Z" fill="#212121"/>
</svg>
