<svg width="20" height="19" viewBox="0 0 20 19" fill="none" xmlns="http://www.w3.org/2000/svg">
<mask id="path-1-inside-1" fill="white">
<path fill-rule="evenodd" clip-rule="evenodd" d="M7.94999 2H20V3H7.94999C7.71836 4.14112 6.70948 5 5.5 5C4.29052 5 3.28164 4.14112 3.05001 3H0V2H3.05001C3.28164 0.85888 4.29052 0 5.5 0C6.70948 0 7.71836 0.85888 7.94999 2ZM0 10H12.05C12.2816 11.1411 13.2905 12 14.5 12C15.7095 12 16.7184 11.1411 16.95 10H20V9H16.95C16.7184 7.85888 15.7095 7 14.5 7C13.2905 7 12.2816 7.85888 12.05 9H0V10ZM3.05001 17H0V16H3.05001C3.28164 14.8589 4.29052 14 5.5 14C6.70948 14 7.71836 14.8589 7.94999 16H20V17H7.94999C7.71836 18.1411 6.70948 19 5.5 19C4.29052 19 3.28164 18.1411 3.05001 17Z"/>
</mask>
<path fill-rule="evenodd" clip-rule="evenodd" d="M7.94999 2H20V3H7.94999C7.71836 4.14112 6.70948 5 5.5 5C4.29052 5 3.28164 4.14112 3.05001 3H0V2H3.05001C3.28164 0.85888 4.29052 0 5.5 0C6.70948 0 7.71836 0.85888 7.94999 2ZM0 10H12.05C12.2816 11.1411 13.2905 12 14.5 12C15.7095 12 16.7184 11.1411 16.95 10H20V9H16.95C16.7184 7.85888 15.7095 7 14.5 7C13.2905 7 12.2816 7.85888 12.05 9H0V10ZM3.05001 17H0V16H3.05001C3.28164 14.8589 4.29052 14 5.5 14C6.70948 14 7.71836 14.8589 7.94999 16H20V17H7.94999C7.71836 18.1411 6.70948 19 5.5 19C4.29052 19 3.28164 18.1411 3.05001 17Z" fill="white"/>
<path d="M20 2H21V1H20V2ZM7.94999 2L6.96998 2.19893L7.13259 3H7.94999V2ZM20 3V4H21V3H20ZM7.94999 3V2H7.13259L6.96998 2.80107L7.94999 3ZM3.05001 3L4.03002 2.80107L3.86741 2H3.05001V3ZM0 3H-1V4H0V3ZM0 2V1H-1V2H0ZM3.05001 2V3H3.86741L4.03002 2.19893L3.05001 2ZM12.05 10L13.03 9.80107L12.8674 9H12.05V10ZM0 10H-1V11H0V10ZM16.95 10V9H16.1326L15.97 9.80107L16.95 10ZM20 10V11H21V10H20ZM20 9H21V8H20V9ZM16.95 9L15.97 9.19893L16.1326 10H16.95V9ZM12.05 9V10H12.8674L13.03 9.19893L12.05 9ZM0 9V8H-1V9H0ZM0 17H-1V18H0V17ZM3.05001 17L4.03002 16.8011L3.86741 16H3.05001V17ZM0 16V15H-1V16H0ZM3.05001 16V17H3.86741L4.03002 16.1989L3.05001 16ZM7.94999 16L6.96998 16.1989L7.13259 17H7.94999V16ZM20 16H21V15H20V16ZM20 17V18H21V17H20ZM7.94999 17V16H7.13259L6.96998 16.8011L7.94999 17ZM20 1H7.94999V3H20V1ZM21 3V2H19V3H21ZM7.94999 4H20V2H7.94999V4ZM5.5 6C7.19443 6 8.60563 4.79692 8.93 3.19893L6.96998 2.80107C6.83108 3.48532 6.22452 4 5.5 4V6ZM2.07 3.19893C2.39437 4.79692 3.80557 6 5.5 6V4C4.77548 4 4.16892 3.48532 4.03002 2.80107L2.07 3.19893ZM0 4H3.05001V2H0V4ZM-1 2V3H1V2H-1ZM3.05001 1H0V3H3.05001V1ZM5.5 -1C3.80557 -1 2.39437 0.203079 2.07 1.80107L4.03002 2.19893C4.16892 1.51468 4.77548 1 5.5 1V-1ZM8.93 1.80107C8.60563 0.20308 7.19443 -1 5.5 -1V1C6.22452 1 6.83108 1.51468 6.96998 2.19893L8.93 1.80107ZM12.05 9H0V11H12.05V9ZM14.5 11C13.7755 11 13.1689 10.4853 13.03 9.80107L11.07 10.1989C11.3944 11.7969 12.8056 13 14.5 13V11ZM15.97 9.80107C15.8311 10.4853 15.2245 11 14.5 11V13C16.1944 13 17.6056 11.7969 17.93 10.1989L15.97 9.80107ZM20 9H16.95V11H20V9ZM19 9V10H21V9H19ZM16.95 10H20V8H16.95V10ZM14.5 8C15.2245 8 15.8311 8.51468 15.97 9.19893L17.93 8.80107C17.6056 7.20308 16.1944 6 14.5 6V8ZM13.03 9.19893C13.1689 8.51468 13.7755 8 14.5 8V6C12.8056 6 11.3944 7.20308 11.07 8.80107L13.03 9.19893ZM0 10H12.05V8H0V10ZM1 10V9H-1V10H1ZM0 18H3.05001V16H0V18ZM-1 16V17H1V16H-1ZM3.05001 15H0V17H3.05001V15ZM4.03002 16.1989C4.16892 15.5147 4.77548 15 5.5 15V13C3.80557 13 2.39437 14.2031 2.07 15.8011L4.03002 16.1989ZM5.5 15C6.22452 15 6.83108 15.5147 6.96998 16.1989L8.93 15.8011C8.60563 14.2031 7.19443 13 5.5 13V15ZM20 15H7.94999V17H20V15ZM21 17V16H19V17H21ZM7.94999 18H20V16H7.94999V18ZM6.96998 16.8011C6.83108 17.4853 6.22453 18 5.5 18V20C7.19443 20 8.60563 18.7969 8.93 17.1989L6.96998 16.8011ZM5.5 18C4.77547 18 4.16892 17.4853 4.03002 16.8011L2.07 17.1989C2.39437 18.7969 3.80557 20 5.5 20V18Z" fill="#3D4F9C" mask="url(#path-1-inside-1)"/>
</svg>
