<svg width="22" height="20" viewBox="0 0 22 20" fill="none" xmlns="http://www.w3.org/2000/svg">
<path fill-rule="evenodd" clip-rule="evenodd" d="M7.60962 17.1107C5.40294 15.179 3.4972 13.5107 2.17252 11.8922C0.690334 10.0813 0 8.39187 0 6.57542C0 4.90671 0.550632 3.34587 1.55042 2.1804C2.59852 0.958694 4.05252 0.285889 5.64453 0.285889C7.88358 0.285889 9.30115 1.65964 10.096 2.81211C10.3423 3.16919 10.9077 3.16916 11.154 2.81211C11.9488 1.65964 13.3664 0.285889 15.6055 0.285889C17.1975 0.285889 18.6515 0.958737 19.6996 2.18044C20.6994 3.34587 21.25 4.90671 21.25 6.57542C21.25 8.39187 20.5597 10.0813 19.0775 11.8922C17.7528 13.5107 15.8471 15.179 13.6403 17.1108L13.6402 17.1108C12.8179 17.8307 11.9675 18.5751 11.0622 19.3888L11.0351 19.4133C10.9177 19.5189 10.7713 19.5716 10.625 19.5716C10.4787 19.5716 10.3323 19.5188 10.2149 19.4133L10.1878 19.3888C9.28518 18.5776 8.43723 17.8352 7.61712 17.1173L7.60962 17.1107ZM10.625 18.4377C10.4752 18.3036 10.3269 18.1713 10.18 18.0407C10.4757 18.0732 10.7743 18.0732 11.07 18.0407C10.9231 18.1713 10.7748 18.3036 10.625 18.4377ZM10.5368 4.07763C10.5956 4.08067 10.6545 4.08067 10.7132 4.07762C10.6822 4.14167 10.6528 4.20436 10.625 4.26542C10.5972 4.20436 10.5678 4.14168 10.5368 4.07763ZM12.1699 3.55159C12.795 2.64531 13.8985 1.56499 15.6055 1.56499C16.8349 1.56499 17.9571 2.08392 18.7655 3.02614C19.5647 3.95779 20.0049 5.2183 20.0049 6.57542C20.0049 9.85874 17.1517 12.3564 12.8328 16.1371L12.6341 16.3111C11.4859 17.3164 9.76412 17.3164 8.61594 16.3111L8.41728 16.1372C4.0983 12.3564 1.24512 9.85874 1.24512 6.57542C1.24512 5.2183 1.68527 3.95779 2.48455 3.02614C3.29292 2.08392 4.41514 1.56499 5.64453 1.56499C7.35155 1.56499 8.45501 2.64531 9.08006 3.55155C9.64073 4.36442 9.9333 5.18381 10.0331 5.49834C10.1165 5.76162 10.3555 5.9398 10.625 5.9398C10.8945 5.9398 11.1335 5.76162 11.2169 5.49834C11.3167 5.18381 11.6093 4.36442 12.1699 3.55159Z" fill="#b1b5c5"/>
</svg>
