<svg width="20" height="18" viewBox="0 0 20 18" fill="none" xmlns="http://www.w3.org/2000/svg">
<path d="M18.5408 1.76821C17.5543 0.627951 16.1859 0 14.6875 0C12.5802 0 11.246 1.28217 10.4979 2.3578C10.3038 2.63692 10.1386 2.91679 10 3.18015C9.86137 2.91679 9.69629 2.63692 9.50215 2.3578C8.75402 1.28217 7.41984 0 5.3125 0C3.81414 0 2.44566 0.627991 1.45918 1.76825C0.518242 2.85599 0 4.31277 0 5.87023C0 7.56558 0.649727 9.14242 2.04473 10.8326C3.29148 12.3431 5.08512 13.9002 7.16211 15.7032C7.93606 16.3751 8.73641 17.0699 9.58848 17.8294L9.61406 17.8522C9.72453 17.9508 9.86227 18 10 18C10.1377 18 10.2755 17.9507 10.3859 17.8522L10.4115 17.8294C11.2636 17.0699 12.0639 16.3752 12.838 15.7032C14.9149 13.9003 16.7085 12.3432 17.9553 10.8326C19.3503 9.14238 20 7.56558 20 5.87023C20 4.31277 19.4818 2.85599 18.5408 1.76821Z" fill="rgb(255, 255, 255)"/>
</svg>
