<svg width="18" height="18" viewBox="0 0 18 18" fill="none" xmlns="http://www.w3.org/2000/svg">
<path d="M15.364 2.63602C13.6641 0.936176 11.404 0 9 0C6.59602 0 4.33593 0.936176 2.63602 2.63602C0.936176 4.33589 0 6.59602 0 9C0 11.404 0.936176 13.6641 2.63602 15.364C4.33593 17.0638 6.59602 18 9 18C11.404 18 13.6641 17.0638 15.364 15.364C17.0638 13.6641 18 11.404 18 9C18 6.59602 17.0638 4.33589 15.364 2.63602ZM7.29313 1.23989C6.99124 1.53355 6.66496 1.8835 6.3385 2.29082C5.77396 2.99524 5.30388 3.75342 4.93622 4.55073H2.42044C3.54414 2.89434 5.27636 1.68314 7.29313 1.23989ZM1.8174 5.60542H4.51807C4.2107 6.52356 4.03189 7.48392 3.98521 8.47266H1.07262C1.1398 7.45281 1.40003 6.48499 1.8174 5.60542ZM1.07262 9.52734H3.98521C4.03189 10.5161 4.21066 11.4764 4.51807 12.3946H1.8174C1.40003 11.515 1.1398 10.5472 1.07262 9.52734ZM2.42044 13.4493H4.93622C5.30388 14.2465 5.77396 15.0048 6.3385 15.7092C6.66492 16.1165 6.99121 16.4664 7.29313 16.7601C5.27636 16.3169 3.54414 15.1057 2.42044 13.4493ZM8.47266 16.4111C8.09708 16.0873 7.6301 15.6343 7.1615 15.0496C6.75169 14.5382 6.40072 14.0042 6.10833 13.4493H8.47266V16.4111ZM8.47266 12.3946H5.63266C5.28986 11.4867 5.09242 10.5291 5.04123 9.52734H8.47266V12.3946ZM8.47266 8.47266H5.04123C5.09245 7.47105 5.29014 6.5135 5.63309 5.60542H8.47266V8.47266ZM8.47266 4.55073H6.10833C6.39471 4.00714 6.73741 3.4837 7.1364 2.98181C7.61098 2.38489 8.089 1.92108 8.47266 1.59033V4.55073ZM16.9274 8.47266H14.0148C13.9681 7.48392 13.7893 6.52356 13.4819 5.60542H16.1826C16.6 6.48499 16.8602 7.45281 16.9274 8.47266ZM15.5796 4.55073H13.0638C12.6961 3.75346 12.226 2.99524 11.6615 2.29082C11.3351 1.8835 11.0088 1.53355 10.7069 1.23989C12.7237 1.68314 14.4559 2.89434 15.5796 4.55073ZM9.52734 1.58885C9.90292 1.91268 10.3699 2.36566 10.8385 2.95038C11.2483 3.46177 11.5993 3.99575 11.8917 4.55073H9.52734V1.58885ZM9.52734 5.60542H12.3673C12.7102 6.51333 12.9076 7.47091 12.9588 8.47266H9.52734V5.60542ZM9.52734 9.52734H12.9587C12.9075 10.5289 12.7098 11.4865 12.3669 12.3946H9.52734V9.52734ZM9.52734 16.4096V13.4493H11.8917C11.6053 13.9929 11.2626 14.5163 10.8636 15.0182C10.389 15.6151 9.91104 16.0789 9.52734 16.4096ZM10.7069 16.7601C11.0088 16.4664 11.3351 16.1165 11.6615 15.7092C12.2261 15.0048 12.6962 14.2466 13.0638 13.4493H15.5796C14.4559 15.1057 12.7237 16.3169 10.7069 16.7601ZM16.1826 12.3946H13.4819C13.7893 11.4764 13.9681 10.5161 14.0148 9.52734H16.9274C16.8602 10.5472 16.6 11.515 16.1826 12.3946Z" fill="#ADBDFF"/>
</svg>
