<svg width="30" height="26" viewBox="0 0 30 26" fill="none" xmlns="http://www.w3.org/2000/svg">
<path fill-rule="evenodd" clip-rule="evenodd" d="M7.14786 26C3.20365 26 0.00637854 22.7926 0.00637854 18.8358C0.00637854 18.834 0.00647178 18.8323 0.00656259 18.8307C0.00664881 18.8291 0.00673285 18.8276 0.00673285 18.826C-0.00153432 18.6169 -0.421507 7.20336 6.96681 1.76129C10.3333 -0.718331 10.164 -0.42287 8.96513 1.66908C7.79119 3.71752 5.63006 7.48851 4.83494 12.0632C5.56133 11.8134 6.33726 11.6717 7.14786 11.6717C11.0921 11.6717 14.2894 14.879 14.2894 18.8358C14.2894 22.7926 11.0921 26 7.14786 26ZM22.8581 26C18.9139 26 15.7166 22.7926 15.7166 18.8358C15.7166 18.834 15.7167 18.8323 15.7168 18.8307C15.7169 18.8291 15.717 18.8276 15.717 18.826C15.7086 18.6169 15.2887 7.20336 22.677 1.76129C26.0436 -0.71833 25.8742 -0.42287 24.6754 1.66908C23.5014 3.71752 21.3403 7.48851 20.5452 12.0632C21.2715 11.8134 22.0474 11.6717 22.8581 11.6717C26.8023 11.6717 29.9997 14.879 29.9997 18.8358C29.9997 22.7926 26.8024 26 22.8581 26Z" fill="#3D4F9C"/>
</svg>
