<svg width="16" height="16" viewBox="0 0 16 16" fill="none" xmlns="http://www.w3.org/2000/svg">
<path d="M4.64863 9.27941C5.09827 9.27941 5.53289 9.24672 5.94417 9.18588V4.11253C5.53293 4.05173 5.09827 4.01904 4.64863 4.01904C2.08127 4.01904 0 5.08138 0 6.3919V6.9065C0 8.21698 2.08127 9.27941 4.64863 9.27941Z" fill="#3D4F9C"/>
<path d="M4.64863 11.9281C5.09827 11.9281 5.53289 11.8955 5.94417 11.8347V10.3476C5.53281 10.4084 5.09839 10.4416 4.64863 10.4416C2.4076 10.4416 0.53713 9.63205 0.0977687 8.55469C0.0337848 8.71162 0 8.87411 0 9.04068V9.55529C0 10.8658 2.08127 11.9281 4.64863 11.9281Z" fill="#3D4F9C"/>
<path d="M5.94417 13.1126V12.997C5.53282 13.0578 5.09839 13.091 4.64863 13.091C2.4076 13.091 0.53713 12.2815 0.0977687 11.2041C0.0337848 11.361 0 11.5235 0 11.6901V12.2047C0 13.5152 2.08127 14.5776 4.64863 14.5776C5.16206 14.5776 5.65588 14.535 6.11767 14.4565C6.00321 14.193 5.94417 13.9151 5.94417 13.6272V13.1126Z" fill="#3D4F9C"/>
<path d="M11.3513 0C8.78391 0 6.70264 1.06234 6.70264 2.37286V2.88746C6.70264 4.19798 8.78391 5.26032 11.3513 5.26032C13.9186 5.26032 15.9999 4.19798 15.9999 2.88746V2.37286C15.9999 1.06234 13.9186 0 11.3513 0Z" fill="#3D4F9C"/>
<path d="M11.3513 6.423C9.11024 6.423 7.23977 5.61354 6.80041 4.53613C6.73642 4.69302 6.70264 4.85551 6.70264 5.02213V5.53673C6.70264 6.84725 8.78391 7.90959 11.3513 7.90959C13.9186 7.90959 15.9999 6.84725 15.9999 5.53673V5.02213C15.9999 4.85551 15.9661 4.69302 15.9021 4.53613C15.4628 5.61354 13.5923 6.423 11.3513 6.423Z" fill="#3D4F9C"/>
<path d="M11.3513 9.07192C9.11024 9.07192 7.23977 8.26242 6.80041 7.18506C6.73642 7.34195 6.70264 7.50444 6.70264 7.67105V8.18566C6.70264 9.49622 8.78391 10.5586 11.3513 10.5586C13.9186 10.5586 15.9999 9.49622 15.9999 8.18566V7.67105C15.9999 7.50444 15.9661 7.34195 15.9021 7.18506C15.4628 8.26246 13.5923 9.07192 11.3513 9.07192Z" fill="#3D4F9C"/>
<path d="M11.3513 11.8644C9.11024 11.8644 7.23977 11.0549 6.80041 9.97754C6.73642 10.1345 6.70264 10.2969 6.70264 10.4635V10.9781C6.70264 12.2887 8.78391 13.351 11.3513 13.351C13.9186 13.351 15.9999 12.2887 15.9999 10.9781V10.4635C15.9999 10.2969 15.9661 10.1344 15.9021 9.97754C15.4628 11.0549 13.5923 11.8644 11.3513 11.8644Z" fill="#3D4F9C"/>
<path d="M11.3513 14.5133C9.11024 14.5133 7.23977 13.7039 6.80041 12.6265C6.73642 12.7834 6.70264 12.946 6.70264 13.1125V13.6271C6.70264 14.9376 8.78391 15.9999 11.3513 15.9999C13.9186 15.9999 15.9999 14.9376 15.9999 13.6271V13.1124C15.9999 12.9458 15.9661 12.7833 15.9021 12.6265C15.4628 13.7038 13.5923 14.5133 11.3513 14.5133Z" fill="#3D4F9C"/>
</svg>
