<svg width="31" height="30" viewBox="0 0 31 30" fill="none" xmlns="http://www.w3.org/2000/svg">
<path fill-rule="evenodd" clip-rule="evenodd" d="M15.9902 30C13.0235 30 10.1234 29.1203 7.6567 27.4721C5.18996 25.8238 3.26732 23.4812 2.13201 20.7403C0.996694 17.9994 0.699697 14.9834 1.27848 12.0737C1.85725 9.16394 3.28578 6.4912 5.38357 4.39341C7.48136 2.29562 10.1542 0.867006 13.0639 0.288228C15.9737 -0.290551 18.9896 0.00649925 21.7305 1.14181C24.4713 2.27713 26.8141 4.19972 28.4623 6.66646C30.1106 9.1332 30.9902 12.0333 30.9902 15C30.9863 18.977 29.4046 22.7901 26.5924 25.6022C23.7802 28.4144 19.9673 29.9961 15.9902 30ZM15.9902 0.727507C13.1679 0.727719 10.4091 1.56479 8.06254 3.13287C5.71598 4.70095 3.88713 6.92963 2.80715 9.53709C1.72716 12.1446 1.4445 15.0137 1.99507 17.7818C2.54565 20.5498 3.90462 23.0924 5.90019 25.0882C7.89577 27.0839 10.4384 28.4431 13.2064 28.9939C15.9744 29.5446 18.8435 29.2623 21.4511 28.1825C24.0586 27.1027 26.2875 25.274 27.8557 22.9275C29.424 20.5811 30.2613 17.8223 30.2617 15C30.2592 11.2158 28.7547 7.58727 26.0788 4.91141C23.403 2.23555 19.7745 0.731133 15.9902 0.728578V0.727507ZM17.7367 10.5097C17.6226 10.483 17.5041 10.481 17.3892 10.5038C17.2742 10.5266 17.1655 10.5736 17.0702 10.6417C16.9748 10.7099 16.8952 10.7976 16.8364 10.8989C16.7777 11.0003 16.7413 11.1131 16.7296 11.2297V12.7682H18.9045L18.7545 14.7386H16.7296V21.5839H14.1796V14.7386H12.8188V12.7682H14.1796V11.445C14.115 10.7355 14.2681 10.0231 14.6188 9.40287C14.859 9.07361 15.1784 8.81014 15.5472 8.63675C15.9161 8.46336 16.3228 8.38563 16.7296 8.41072C17.5515 8.37521 18.3741 8.45821 19.1723 8.65716L18.8295 10.6736C18.4732 10.5753 18.1062 10.5203 17.7367 10.5097Z" fill="#3D4F9C"/>
</svg>
