<svg width="30" height="30" viewBox="0 0 30 30" fill="none" xmlns="http://www.w3.org/2000/svg">
<path fill-rule="evenodd" clip-rule="evenodd" d="M15 30C12.0333 30 9.1332 29.1203 6.66646 27.4721C4.19972 25.8238 2.27709 23.4812 1.14178 20.7403C0.00645991 17.9994 -0.290537 14.9834 0.288241 12.0737C0.86702 9.16394 2.29555 6.4912 4.39334 4.39341C6.49113 2.29562 9.16385 0.867006 12.0736 0.288228C14.9833 -0.290551 17.9993 0.00649925 20.7402 1.14181C23.4811 2.27713 25.8239 4.19972 27.4721 6.66646C29.1203 9.1332 30 12.0333 30 15C29.996 18.977 28.4144 22.7901 25.6022 25.6022C22.79 28.4144 18.977 29.9961 15 30ZM15 0.727507C12.1777 0.727719 9.41887 1.56479 7.0723 3.13287C4.72574 4.70095 2.8969 6.92963 1.81691 9.53709C0.736923 12.1446 0.454266 15.0137 1.00484 17.7818C1.55541 20.5498 2.91438 23.0924 4.90996 25.0882C6.90553 27.0839 9.44812 28.4431 12.2161 28.9939C14.9841 29.5446 17.8533 29.2623 20.4609 28.1825C23.0684 27.1027 25.2972 25.274 26.8655 22.9275C28.4338 20.5811 29.2709 17.8223 29.2714 15C29.2688 11.2158 27.7644 7.58727 25.0886 4.91141C22.4127 2.23555 18.7842 0.731133 15 0.728578V0.727507ZM19.0393 21.5797H10.9714C10.2961 21.5794 9.64843 21.3114 9.17043 20.8344C8.69243 20.3574 8.4231 19.7103 8.4214 19.035V10.9607C8.42338 10.2856 8.69285 9.63884 9.17082 9.16207C9.6488 8.6853 10.2963 8.41743 10.9714 8.41715H19.0393C19.7144 8.41743 20.3619 8.6853 20.8399 9.16207C21.3179 9.63884 21.5873 10.2856 21.5893 10.9607V19.0361C21.5876 19.7114 21.3181 20.3584 20.8401 20.8354C20.3621 21.3124 19.7146 21.5805 19.0393 21.5807V21.5797ZM16.8857 13.6511C16.6716 13.3523 16.3893 13.1088 16.0623 12.9408C15.7353 12.7728 15.373 12.6852 15.0054 12.6852C14.6377 12.6852 14.2754 12.7728 13.9484 12.9408C13.6214 13.1088 13.3391 13.3523 13.125 13.6511C12.8425 14.0457 12.689 14.518 12.6857 15.0032C12.6857 15.6184 12.9301 16.2084 13.3651 16.6435C13.8001 17.0785 14.3901 17.3229 15.0054 17.3229C15.6206 17.3229 16.2106 17.0785 16.6456 16.6435C17.0806 16.2084 17.325 15.6184 17.325 15.0032C17.3277 14.5157 17.1737 14.0402 16.8857 13.6468V13.6511ZM20.0678 10.2225V9.93323H19.7785L17.8286 9.93966L17.8393 12.1714L20.0678 12.1618V10.2225ZM20.3035 13.6511H18.3428C18.5196 14.08 18.6106 14.5393 18.6107 15.0032C18.6107 15.958 18.2314 16.8737 17.5563 17.5488C16.8811 18.2239 15.9655 18.6032 15.0107 18.6032C14.0559 18.6032 13.1403 18.2239 12.4652 17.5488C11.79 16.8737 11.4107 15.958 11.4107 15.0032C11.4126 14.5405 11.4997 14.0822 11.6679 13.6511H9.70719V19.0404C9.70804 19.3751 9.8415 19.6959 10.0785 19.9323C10.3155 20.1687 10.6367 20.3015 10.9714 20.3014H19.0393C19.3741 20.3015 19.6951 20.1687 19.9321 19.9323C20.1691 19.6959 20.3027 19.3751 20.3035 19.0404V13.6511Z" fill="#3D4F9C"/>
</svg>
