<svg width="30" height="30" viewBox="0 0 30 30" fill="none" xmlns="http://www.w3.org/2000/svg">
<path fill-rule="evenodd" clip-rule="evenodd" d="M15 30C12.0333 30 9.1332 29.1203 6.66646 27.4721C4.19972 25.8238 2.27709 23.4812 1.14178 20.7403C0.00645991 17.9994 -0.290537 14.9834 0.288241 12.0737C0.86702 9.16394 2.29555 6.4912 4.39334 4.39341C6.49113 2.29562 9.16385 0.867006 12.0736 0.288228C14.9833 -0.290551 17.9993 0.00649925 20.7402 1.14181C23.4811 2.27713 25.8239 4.19972 27.4721 6.66646C29.1203 9.1332 30 12.0333 30 15C29.9946 18.9766 28.4125 22.7888 25.6006 25.6007C22.7887 28.4126 18.9766 29.9946 15 30ZM15 0.727507C12.1777 0.727719 9.41887 1.56479 7.0723 3.13287C4.72574 4.70095 2.8969 6.92963 1.81691 9.53709C0.736923 12.1446 0.454266 15.0137 1.00484 17.7818C1.55541 20.5498 2.91438 23.0924 4.90996 25.0882C6.90553 27.0839 9.44812 28.4431 12.2161 28.9939C14.9841 29.5446 17.8533 29.2623 20.4609 28.1825C23.0684 27.1027 25.2972 25.274 26.8655 22.9275C28.4338 20.5811 29.2709 17.8223 29.2714 15C29.2657 11.2167 27.7604 7.59003 25.0852 4.91485C22.41 2.23966 18.7833 0.734246 15 0.728578V0.727507ZM20.9785 14.2747C20.7002 14.6002 20.4561 14.9535 20.25 15.3289C20.2062 15.4378 20.194 15.5567 20.2148 15.6722C20.2357 15.7876 20.2887 15.8948 20.3679 15.9814C20.5685 16.2143 20.7832 16.4347 21.0107 16.6414H21.0214L21.0321 16.65L21.0429 16.6586L21.0536 16.6747C21.6534 17.1876 22.1733 17.787 22.5964 18.4532C22.6071 18.48 22.6286 18.5132 22.65 18.555C22.6714 18.5968 22.6821 18.6622 22.7035 18.7693C22.725 18.8591 22.725 18.9527 22.7035 19.0425C22.6647 19.1386 22.5924 19.2174 22.5 19.2643C22.351 19.3398 22.1847 19.3745 22.0179 19.365L19.9607 19.3972C19.8097 19.4223 19.6547 19.4083 19.5107 19.3564C19.3651 19.3136 19.2249 19.2543 19.0928 19.1797L18.9322 19.0832C18.7262 18.9304 18.5359 18.7574 18.3643 18.5668C18.15 18.3361 17.9679 18.1282 17.8179 17.9432C17.6712 17.7702 17.506 17.6139 17.325 17.4772C17.2639 17.4209 17.19 17.3801 17.1099 17.3581C17.0298 17.3361 16.9456 17.3336 16.8643 17.3507L16.8 17.3807C16.7536 17.4151 16.7106 17.4539 16.6715 17.4964C16.6004 17.5668 16.5391 17.6465 16.4893 17.7332C16.4286 17.8668 16.3854 18.0076 16.3607 18.1522C16.3143 18.3569 16.2962 18.5671 16.3071 18.7768C16.3073 18.8495 16.2965 18.9217 16.2749 18.9911C16.2624 19.0425 16.2445 19.0924 16.2214 19.14L16.1893 19.1807C16.0726 19.2899 15.9203 19.3531 15.7607 19.3586H14.8285C14.4346 19.3781 14.0402 19.3332 13.6607 19.2257C13.29 19.1296 12.9335 18.9855 12.6 18.7972C12.3122 18.6334 12.0332 18.4545 11.7643 18.2614C11.5635 18.1218 11.3737 17.967 11.1964 17.7986L11.0036 17.6057C10.95 17.5522 10.8751 17.4707 10.7786 17.3647C10.6822 17.2586 10.4893 17.0122 10.2 16.6318C9.91072 16.2514 9.62138 15.8464 9.34281 15.4168C9.06424 14.9872 8.7429 14.4214 8.35718 13.7186C7.97147 13.0157 7.6285 12.2861 7.30707 11.5286C7.28017 11.4603 7.26575 11.3877 7.2643 11.3143C7.26331 11.2705 7.27061 11.2269 7.28575 11.1857L7.3178 11.1364C7.37892 11.0791 7.45181 11.0358 7.53138 11.0095C7.61094 10.9833 7.69533 10.9746 7.77857 10.9843L9.98564 10.9682C10.0485 10.9778 10.1098 10.9958 10.1678 11.0218C10.2146 11.0358 10.2583 11.0587 10.2964 11.0893L10.3393 11.1139C10.4284 11.1779 10.4956 11.2676 10.5321 11.3711C10.6425 11.6549 10.7678 11.9328 10.9072 12.2036C11.0465 12.4893 11.1535 12.7082 11.2285 12.8604L11.3571 13.0939C11.5178 13.4154 11.6679 13.695 11.8072 13.9307C11.9242 14.125 12.0568 14.3096 12.2036 14.4825C12.3023 14.5982 12.4137 14.7024 12.5357 14.7932C12.6156 14.8571 12.7124 14.8962 12.8142 14.9057C12.8875 14.9054 12.9603 14.8916 13.0286 14.865C13.0446 14.8538 13.059 14.8405 13.0714 14.8254C13.0821 14.8061 13.1143 14.745 13.1679 14.6475C13.2213 14.5271 13.2573 14.3998 13.275 14.2693C13.2964 14.115 13.3285 13.8975 13.3499 13.6179C13.3823 13.2829 13.3823 12.9457 13.3499 12.6107C13.3432 12.4131 13.3181 12.2166 13.275 12.0236C13.2541 11.8962 13.2181 11.7718 13.1679 11.6529L13.1143 11.5554C13.0292 11.4545 12.9246 11.3719 12.8068 11.3126C12.6889 11.2533 12.5602 11.2185 12.4285 11.2104C12.3642 11.1986 12.375 11.1354 12.4714 11.0164C12.5597 10.9181 12.665 10.8365 12.7822 10.7754C13.4039 10.5921 14.0542 10.5263 14.7 10.5814C15.0669 10.5806 15.433 10.6165 15.7928 10.6886C15.887 10.7105 15.9774 10.7466 16.0607 10.7957C16.1344 10.8402 16.191 10.9081 16.2214 10.9886C16.2602 11.0709 16.289 11.1576 16.3071 11.2468C16.3316 11.3673 16.3424 11.4903 16.3393 11.6132C16.3393 11.7686 16.3393 11.9154 16.3286 12.0557C16.3178 12.1961 16.3178 12.3847 16.3071 12.6225C16.2964 12.8604 16.2964 13.0832 16.2964 13.2868C16.2964 13.3457 16.2964 13.4593 16.2857 13.6254V14.0111C16.2874 14.1211 16.2982 14.2307 16.3178 14.3389C16.3259 14.4481 16.355 14.5547 16.4036 14.6529C16.4489 14.731 16.5111 14.7981 16.5857 14.8489C16.6285 14.8607 16.6714 14.8704 16.725 14.8822C16.7631 14.8817 16.8008 14.8736 16.8358 14.8583C16.8707 14.8431 16.9024 14.8209 16.9286 14.7932C17.0385 14.7084 17.1422 14.616 17.2392 14.5168C17.3957 14.3523 17.5356 14.1729 17.6571 13.9811C17.8285 13.7375 18.0107 13.4489 18.2036 13.1154C18.5362 12.5336 18.8263 11.9284 19.0715 11.3047C19.0893 11.254 19.1145 11.2063 19.1464 11.1632C19.1711 11.1313 19.1999 11.1029 19.2321 11.0786L19.2643 11.0529L19.3072 11.0336L19.4143 11.0089C19.4668 10.9937 19.5225 10.9937 19.575 11.0089L21.8893 10.9929C22.0639 10.9643 22.2425 10.9712 22.4143 11.0132C22.5077 11.0318 22.5934 11.0777 22.6607 11.145L22.7035 11.2275C22.8321 11.5704 22.4249 12.3579 21.5035 13.5922C21.3749 13.7636 21.1928 13.9918 20.9785 14.2757V14.2747Z" fill="#3D4F9C"/>
</svg>
