<svg width="16" height="16" viewBox="0 0 16 16" fill="none" xmlns="http://www.w3.org/2000/svg">
<path fill-rule="evenodd" clip-rule="evenodd" d="M15.9146 0.0958676C15.8705 0.0490974 15.8127 0.0174339 15.7496 0.00540048C15.6864 -0.00663296 15.6211 0.00155908 15.5629 0.0288187L0.180651 7.2603C0.120088 7.28961 0.0702974 7.33729 0.0383643 7.39656C0.00643116 7.45584 -0.00605743 7.52371 0.00274692 7.59048C0.0107119 7.65716 0.0398751 7.71951 0.0859354 7.76833C0.131996 7.81715 0.192555 7.84985 0.258594 7.8616L7.1583 9.04616L7.9467 15.7244C7.95421 15.7916 7.98319 15.8545 8.02927 15.9039C8.07536 15.9533 8.13613 15.9865 8.20254 15.9985C8.21981 16.0005 8.23724 16.0005 8.25451 15.9985C8.31265 15.9982 8.3695 15.9816 8.41863 15.9504C8.46775 15.9193 8.50712 15.8749 8.53225 15.8224L15.9696 0.453034C15.9967 0.394734 16.006 0.329664 15.9962 0.266085C15.9864 0.202507 15.958 0.143282 15.9146 0.0958676V0.0958676Z" fill="#ADBDFF"/>
</svg>
