<svg width="188" height="30" viewBox="0 0 188 30" fill="none" xmlns="http://www.w3.org/2000/svg">
<path d="M19.2791 13.6799C19.2791 8.88928 16.1403 4.16602 9.93425 4.16602C3.72816 4.16602 0 8.57888 0 13.994C0 20.5235 4.25378 23.6836 9.58884 23.6836C14.3645 23.6836 17.8486 21.3201 18.9299 17.1204H12.7651C12.5248 18.5415 11.4435 19.4465 9.66393 19.4465C7.88433 19.4465 6.52522 18.5789 6.2136 15.4861H19.1739C19.2426 14.8864 19.2777 14.2834 19.2791 13.6799ZM6.41634 11.6679C6.83308 9.37544 7.98194 8.40311 9.62263 8.40311C11.2633 8.40311 12.3897 9.48015 12.7238 11.6679H6.41634Z" fill="#212121"/>
<path d="M33.0841 13.8555L39.4216 4.6521H32.2131L29.3522 9.99989L26.4275 4.6521H19.1063L25.3462 13.7845L18.8623 23.1861H26.0783L29.2133 17.5766L32.1793 23.1861H39.4967L33.0841 13.8555Z" fill="#212121"/>
<path d="M53.7563 4.16602C51.879 4.16602 50.0619 4.53999 49.0144 5.31411L47.6215 7.36347V4.65218H41.3478V30H47.6215V20.8003L48.8417 22.7786C49.7841 23.3358 51.5937 23.6836 53.1293 23.6836C57.9049 23.6836 61.9485 20.1047 61.9485 13.5078C61.9485 8.02166 58.8097 4.16602 53.7563 4.16602ZM51.436 19.4465C49.5588 19.4465 47.6365 18.1974 47.6365 14.4801V13.6799C47.6365 9.79429 49.311 8.40311 51.6087 8.40311C53.8051 8.40311 55.5509 10.3478 55.5509 13.822C55.5359 17.6065 53.8614 19.4465 51.436 19.4465Z" fill="#212121"/>
<path d="M82.9019 13.6799C82.9019 8.88928 79.7631 4.16602 73.5571 4.16602C67.351 4.16602 63.6228 8.57888 63.6228 13.994C63.6228 20.5235 67.8766 23.6836 73.2079 23.6836C77.9873 23.6836 81.4677 21.3201 82.5527 17.1204H76.3804C76.1364 18.5415 75.0588 19.4465 73.2792 19.4465C71.4996 19.4465 70.1405 18.5789 69.8289 15.4861H82.7967C82.8635 14.8863 82.8986 14.2834 82.9019 13.6799V13.6799ZM70.0391 11.6679C70.4559 9.37544 71.6047 8.40311 73.2454 8.40311C74.8861 8.40311 75.9974 9.48015 76.3466 11.6679H70.0391Z" fill="#212121"/>
<path d="M96.8645 4.16594C96.1753 4.17915 95.496 4.33069 94.867 4.61149C94.238 4.89229 93.6724 5.29659 93.2039 5.8002L91.8786 8.418V4.67828H85.6199V23.1861H91.8936V16.3911C91.8936 10.8002 93.6019 9.06497 98.3099 9.37537V4.27065C97.8318 4.19628 97.3484 4.16125 96.8645 4.16594V4.16594Z" fill="#212121"/>
<path d="M113.301 8.67988V4.79431H109.171V0H102.913V4.79431H99.9506V8.67988H102.913V16.4248C102.913 17.4682 102.913 18.3358 102.98 19.4166C103.191 22.2625 104.584 23.6874 109.22 23.6874C110.46 23.6913 111.697 23.5861 112.918 23.3732V19.4802C109.952 19.6185 109.359 19.2034 109.22 17.3261C109.186 16.8399 109.186 16.1481 109.186 15.5236V8.67988H113.301Z" fill="#212121"/>
<path d="M188 3.78857H116.594V22.9471H188V3.78857Z" fill="#2E3E80"/>
<path d="M131.653 3.78857H123.394C119.639 5.17227 117.405 8.57167 117.405 13.3473C117.405 18.1229 119.707 21.5934 123.536 22.9471H131.507C135.336 21.5934 137.638 18.1603 137.638 13.3473C137.638 8.53427 135.396 5.17227 131.653 3.78857ZM127.523 19.8207C124.542 19.8207 122.68 17.5058 122.68 13.3398C122.68 9.17376 124.557 6.85888 127.523 6.85888C130.489 6.85888 132.367 9.14384 132.367 13.3398C132.367 17.5358 130.504 19.8207 127.523 19.8207Z" fill="white"/>
<path d="M154.495 3.78857V11.9187C154.495 13.0593 154.525 15.0863 154.668 17.087L147.321 3.78857H140.739V22.9471H145.898V15.0601C145.898 13.9157 145.898 12.1768 145.725 10.176L152.78 22.9471H159.654V3.78857H154.495Z" fill="white"/>
<path d="M168.653 19.1999V15.3331H177.795V11.3204H168.653V7.47967H178.37V3.78857H163.495V22.9471H178.655V19.2074L168.653 19.1999Z" fill="white"/>
</svg>
