<svg width="26" height="25" viewBox="0 0 26 25" fill="none" xmlns="http://www.w3.org/2000/svg">
<path fill-rule="evenodd" clip-rule="evenodd" d="M18.4389 9.80958C18.4389 14.0463 14.8368 17.6192 10.2194 17.6192C5.60202 17.6192 2 14.0463 2 9.80958C2 5.57283 5.60202 2 10.2194 2C14.8368 2 18.4389 5.57283 18.4389 9.80958ZM16.3512 17.6579C14.6432 18.8894 12.5201 19.6192 10.2194 19.6192C4.5754 19.6192 0 15.2273 0 9.80958C0 4.3919 4.5754 0 10.2194 0C15.8635 0 20.4389 4.3919 20.4389 9.80958C20.4389 12.313 19.462 14.5973 17.8541 16.3306L24.7215 22.9225C25.1199 23.305 25.1199 23.925 24.7215 24.3075C24.323 24.6899 23.677 24.6899 23.2786 24.3075L16.3512 17.6579Z" fill="#3D4F9C"/>
</svg>
